<svg xmlns="http://www.w3.org/2000/svg" width="192" height="192" viewBox="0 0 192 192">
  <defs>
    <linearGradient id="gradient" x1="0%" y1="0%" x2="100%" y2="100%">
      <stop offset="0%" stop-color="#28a745" />
      <stop offset="100%" stop-color="#20c997" />
    </linearGradient>
  </defs>
  <circle cx="96" cy="96" r="88" fill="url(#gradient)" stroke="#ffffff" stroke-width="4" />
  <g fill="#ffffff">
    <!-- Leaf icon -->
    <path d="M144,64c-8.8,0-16,7.2-16,16c0,3.2,0.8,6.4,2.4,8.8L112,107.2c-3.2-2.4-7.2-4-11.2-4c-1.6,0-3.2,0.8-4,1.6l-16-16c0.8-1.6,1.6-4,1.6-5.6c0-8.8-7.2-16-16-16s-16,7.2-16,16c0,8.8,7.2,16,16,16c1.6,0,4-0.8,5.6-1.6l16,16c-0.8,1.6-1.6,3.2-1.6,4.8c0,8.8,7.2,16,16,16s16-7.2,16-16c0-4-1.6-8-4-11.2l18.4-18.4c2.4,1.6,5.6,2.4,8.8,2.4c8.8,0,16-7.2,16-16S152.8,64,144,64z M66.4,89.6c-4,0-7.2-3.2-7.2-7.2c0-4,3.2-7.2,7.2-7.2c4,0,7.2,3.2,7.2,7.2C73.6,86.4,70.4,89.6,66.4,89.6z M100.8,139.2c-4,0-7.2-3.2-7.2-7.2c0-4,3.2-7.2,7.2-7.2c4,0,7.2,3.2,7.2,7.2C108,136,104.8,139.2,100.8,139.2z M144,88c-4,0-7.2-3.2-7.2-7.2c0-4,3.2-7.2,7.2-7.2c4,0,7.2,3.2,7.2,7.2C151.2,84,148,88,144,88z" />
    
    <!-- Flask icon -->
    <path d="M68,48v8h12v8c0,16-12,28-28,40h64c-16-12-28-24-28-40v-8h12v-8H68z M80,68v-4h-12v4c0,12,6.4,21.6,16,30.4c2.4,2.4,5.6,4.8,8,6.4H56c2.4-2.4,5.6-4.8,8-6.4C73.6,89.6,80,80,80,68z" />
  </g>
</svg>
