<svg xmlns="http://www.w3.org/2000/svg" width="512" height="512" viewBox="0 0 512 512">
  <defs>
    <linearGradient id="gradient" x1="0%" y1="0%" x2="100%" y2="100%">
      <stop offset="0%" stop-color="#28a745" />
      <stop offset="100%" stop-color="#20c997" />
    </linearGradient>
  </defs>
  <circle cx="256" cy="256" r="236" fill="url(#gradient)" stroke="#ffffff" stroke-width="10" />
  <g fill="#ffffff">
    <!-- Leaf icon -->
    <path d="M384,170.7c-23.5,0-42.7,19.2-42.7,42.7c0,8.5,2.1,17.1,6.4,23.5l-49.1,49.1c-8.5-6.4-19.2-10.7-29.9-10.7c-4.3,0-8.5,2.1-10.7,4.3l-42.7-42.7c2.1-4.3,4.3-10.7,4.3-14.9c0-23.5-19.2-42.7-42.7-42.7s-42.7,19.2-42.7,42.7c0,23.5,19.2,42.7,42.7,42.7c4.3,0,10.7-2.1,14.9-4.3l42.7,42.7c-2.1,4.3-4.3,8.5-4.3,12.8c0,23.5,19.2,42.7,42.7,42.7s42.7-19.2,42.7-42.7c0-10.7-4.3-21.3-10.7-29.9l49.1-49.1c6.4,4.3,14.9,6.4,23.5,6.4c23.5,0,42.7-19.2,42.7-42.7S407.5,170.7,384,170.7z M177.1,239.3c-10.7,0-19.2-8.5-19.2-19.2c0-10.7,8.5-19.2,19.2-19.2c10.7,0,19.2,8.5,19.2,19.2C196.3,230.8,187.7,239.3,177.1,239.3z M268.8,371.2c-10.7,0-19.2-8.5-19.2-19.2c0-10.7,8.5-19.2,19.2-19.2c10.7,0,19.2,8.5,19.2,19.2C288,362.7,279.5,371.2,268.8,371.2z M384,234.7c-10.7,0-19.2-8.5-19.2-19.2c0-10.7,8.5-19.2,19.2-19.2c10.7,0,19.2,8.5,19.2,19.2C403.2,224,394.7,234.7,384,234.7z" />
    
    <!-- Flask icon -->
    <path d="M181.3,128v21.3h32v21.3c0,42.7-32,74.7-74.7,106.7h170.7c-42.7-32-74.7-64-74.7-106.7v-21.3h32V128H181.3z M213.3,181.3v-10.7h-32v10.7c0,32,17.1,57.6,42.7,81.1c6.4,6.4,14.9,12.8,21.3,17.1h-85.3c6.4-6.4,14.9-12.8,21.3-17.1C196.3,238.9,213.3,213.3,213.3,181.3z" />
  </g>
</svg>
